<?xml version="1.0" standalone="no"?><!DOCTYPE svg PUBLIC "-//W3C//DTD SVG 1.1//EN" "http://www.w3.org/Graphics/SVG/1.1/DTD/svg11.dtd"><svg t="1718195424041" class="icon" viewBox="0 0 1024 1024" version="1.1" xmlns="http://www.w3.org/2000/svg" p-id="5592" id="mx_n_1718195424042" xmlns:xlink="http://www.w3.org/1999/xlink" width="64" height="64"><path d="M0 0h872.918033v872.918033H0z" fill="#FFFFFF" p-id="5593"></path><path d="M571.282885 184.655738v26.498098c8.292721 53.902689 15.024262 98.832787 20.194623 134.773508l0.956853 6.63082C600.366164 408.055607 604.327869 440.739672 604.327869 450.610361c0 24.685115-52.500984 40.246557-82.692197 40.246557-2.719475 0-6.446164 0.033574-10.978623 0.083934L521.19082 570.754098 327.344262 561.076459l11.415082-121.646164 0.21823 0.058754c3.642754-42.974426 10.575738-119.086164 20.798951-228.335213L571.282885 184.655738z" fill="#5E85F8" opacity=".4" p-id="5594"></path><path d="M585.442623 67.525246l10.130885 70.706361s6.714754 78.461902-68.406557 96.491016c-66.786623 16.031475-112.958951 12.128525-122.393181 11.062557l-0.864524-0.100721a62.086295 62.086295 0 0 1-0.587541-0.075541l-0.293771-0.041967h-0.033573l-11.070951 43.931279-13.84918 68.456918c0.251803 2.098361-0.176262 4.372984-1.309378 6.815475-8.007344 3.525246-17.424787 0.671475-20.312131 12.77482-2.224262 9.249574-2.568393 33.733246-2.601967 44.737049v5.497705l-10.407869-1.653508s-11.48223-39.977967-23.619147-84.614296l-1.586361-5.850229c-9.526557-35.193705-19.170623-72.301115-23.761836-94.392656-10.710033-51.535738-15.888787-78.705311 5.355016-99.025836 40.481574-38.744131 117.172459-20.26177 164.830427-48.136393C506.351213 69.715934 567.556197 67.659541 582.202754 67.525246h3.231476z" fill="#93ADFA" p-id="5595"></path><path d="M75.540984 780.590164a365.114754 243.409836 0 1 0 730.229508 0 365.114754 243.409836 0 1 0-730.229508 0Z" fill="#9AB3FF" p-id="5596" data-spm-anchor-id="a313x.search_index.0.i8.4b053a81Qwkqpn" class=""></path></svg>